HIERARCHY
ROOT Hips
{
	OFFSET 0.00000 0.00000 0.00000
	CHANNELS 6 Xposition Yposition Zposition Zrotation Yrotation Xrotation 
	JOINT LHipJoint
	{
		OFFSET 0 0 0
		CHANNELS 3 Zrotation Yrotation Xrotation
		JOINT LeftUpLeg
		{
			OFFSET 1.28858 -1.83292 1.03970
			CHANNELS 3 Zrotation Yrotation Xrotation
			JOINT LeftLeg
			{
				OFFSET 2.47846 -6.80952 0.00000
				CHANNELS 3 Zrotation Yrotation Xrotation
				JOINT LeftFoot
				{
					OFFSET 2.75274 -7.56311 0.00000
					CHANNELS 3 Zrotation Yrotation Xrotation
					JOINT LeftToeBase
					{
						OFFSET 0.12848 -0.35301 1.68223
						CHANNELS 3 Zrotation Yrotation Xrotation
						End Site
						{
							OFFSET 0.00000 -0.00000 0.87311
						}
					}
				}
			}
		}
	}
	JOINT RHipJoint
	{
		OFFSET 0 0 0
		CHANNELS 3 Zrotation Yrotation Xrotation
		JOINT RightUpLeg
		{
			OFFSET -1.31183 -1.83292 1.03970
			CHANNELS 3 Zrotation Yrotation Xrotation
			JOINT RightLeg
			{
				OFFSET -2.44740 -6.72417 0.00000
				CHANNELS 3 Zrotation Yrotation Xrotation
				JOINT RightFoot
				{
					OFFSET -2.67343 -7.34519 0.00000
					CHANNELS 3 Zrotation Yrotation Xrotation
					JOINT RightToeBase
					{
						OFFSET -0.16914 -0.46471 1.77626
						CHANNELS 3 Zrotation Yrotation Xrotation
						End Site
						{
							OFFSET -0.00000 -0.00000 0.92777
						}
					}
				}
			}
		}
	}
	JOINT LowerBack
	{
		OFFSET 0 0 0
		CHANNELS 3 Zrotation Yrotation Xrotation
		JOINT Spine
		{
			OFFSET 0.01249 2.14252 0.03842
			CHANNELS 3 Zrotation Yrotation Xrotation
			JOINT Spine1
			{
				OFFSET -0.02957 2.14199 -0.03751
				CHANNELS 3 Zrotation Yrotation Xrotation
				JOINT Neck
				{
					OFFSET 0 0 0
					CHANNELS 3 Zrotation Yrotation Xrotation
					JOINT Neck1
					{
						OFFSET -0.01678 1.65709 -0.05476
						CHANNELS 3 Zrotation Yrotation Xrotation
						JOINT Head
						{
							OFFSET 0.07912 1.58331 -0.11843
							CHANNELS 3 Zrotation Yrotation Xrotation
							End Site
							{
								OFFSET 0.03298 1.73940 -0.04271
							}
						}
					}
				}
				JOINT LeftShoulder
				{
					OFFSET 0 0 0
					CHANNELS 3 Zrotation Yrotation Xrotation
					JOINT LeftArm
					{
						OFFSET 3.39556 1.16496 0.08673
						CHANNELS 3 Zrotation Yrotation Xrotation
						JOINT LeftForeArm
						{
							OFFSET 5.23910 -0.00000 -0.00000
							CHANNELS 3 Zrotation Yrotation Xrotation
							JOINT LeftHand
							{
								OFFSET 3.31467 -0.00000 0.00000
								CHANNELS 3 Zrotation Yrotation Xrotation
								JOINT LeftFingerBase
								{
									OFFSET 0 0 0
									CHANNELS 3 Zrotation Yrotation Xrotation
									JOINT LeftHandIndex1
									{
										OFFSET 0.96590 -0.00000 0.00000
										CHANNELS 3 Zrotation Yrotation Xrotation
										End Site
										{
											OFFSET 0.77873 -0.00000 0.00000
										}
									}
								}
								JOINT LThumb
								{
									OFFSET 0 0 0
									CHANNELS 3 Zrotation Yrotation Xrotation
									End Site
									{
										OFFSET 0.79062 -0.00000 0.79062
									}
								}
							}
						}
					}
				}
				JOINT RightShoulder
				{
					OFFSET 0 0 0
					CHANNELS 3 Zrotation Yrotation Xrotation
					JOINT RightArm
					{
						OFFSET -3.27193 1.31331 0.33940
						CHANNELS 3 Zrotation Yrotation Xrotation
						JOINT RightForeArm
						{
							OFFSET -5.30252 -0.00000 0.00000
							CHANNELS 3 Zrotation Yrotation Xrotation
							JOINT RightHand
							{
								OFFSET -3.67875 -0.00000 0.00000
								CHANNELS 3 Zrotation Yrotation Xrotation
								JOINT RightFingerBase
								{
									OFFSET 0 0 0
									CHANNELS 3 Zrotation Yrotation Xrotation
									JOINT RightHandIndex1
									{
										OFFSET -0.59481 -0.00000 0.00000
										CHANNELS 3 Zrotation Yrotation Xrotation
										End Site
										{
											OFFSET -0.47955 -0.00000 0.00000
										}
									}
								}
								JOINT RThumb
								{
									OFFSET 0 0 0
									CHANNELS 3 Zrotation Yrotation Xrotation
									End Site
									{
										OFFSET -0.48687 -0.00000 0.48687
									}
								}
							}
						}
					}
				}
			}
		}
	}
}
MOTION
Frames: 6
Frame Time: .0083333
8.8489 18.2525 21.9721 0 0 0 0 0 0 -21 0 0 0 0 0 0 0 0 0 0 0 0 0 0 21 0 0 0 0 0 0 0 0 0 0 0 0 0 0 0 0 0 0 0 0 0 0 -16 0 0 21 0 0 11 0 0 0 -8 0 0 0 0 0 0 0 0 0 0 0 0 0 0 0 0 0 0 0 0 8 0 0 0 0 0 0 0 0 0 0 0 0 0 0 0 0 0
8.8489 18.2525 21.9721 0.7125 2.5246 6.4083 0.0000 0.0000 0.0000 -20.9253 -2.7625 -2.1899 0.1189 2.2229 6.1222 0.0000 0.0000 0.0000 0.0000 0.0000 0.0000 0.0000 0.0000 0.0000 21.5785 6.1705 2.6971 -0.0155 -0.8038 2.2092 -0.7735 -10.4309 -23.4789 -0.4245 -4.1818 11.5888 -0.2364 0.8716 -9.9747 -1.7616 1.2201 -4.0934 -1.5540 0.6008 1.3732 -0.7277 -2.9871 2.1458 2.4032 -4.0664 4.0060 0.8469 -2.0224 0.9400 0.0000 0.0000 0.0000 -82.3946 3.2054 45.6273 10.2262 -17.0926 -1.5408 -0.0000 0.0000 -11.8311 8.4815 -9.1299 -1.3554 -7.1250 0.0000 -0.0000 -13.1885 20.8492 7.8378 0.0000 0.0000 0.0000 88.9413 -13.4856 25.6650 -13.4936 22.0061 -2.6354 0.0000 0.0000 5.0653 -8.6232 -40.6872 5.6462 7.1250 -0.0000 -0.0000 37.5136 -67.4023 -21.4012
8.8478 18.2577 21.9832 0.9777 2.6164 6.4338 0.0000 0.0000 0.0000 -21.2290 -2.8438 -2.2739 0.1281 2.3074 6.3560 0.0000 0.0000 0.0000 0.0000 0.0000 0.0000 0.0000 0.0000 0.0000 21.3409 6.2972 2.9098 -0.0140 -0.7632 2.0974 -0.7699 -10.5865 -23.5905 -0.3964 -4.0427 11.1969 -0.5365 0.7966 -10.0628 -1.8048 1.1508 -4.0935 -1.4364 0.5685 1.4146 -0.9587 -2.8862 2.0859 2.5854 -3.9408 4.0431 0.9416 -1.9606 0.9691 -0.0000 0.0000 0.0000 -82.4146 3.2332 45.9646 10.3448 -17.2771 -1.5758 -0.0000 0.0000 -12.3930 8.9259 -8.8788 -1.3886 -7.1250 0.0000 -0.0000 -12.8916 21.0824 7.5821 -0.0000 0.0000 0.0000 88.9170 -13.4304 25.0713 -13.5939 22.1512 -2.6731 0.0000 0.0000 6.1971 -7.3420 -40.2308 4.7571 7.1250 -0.0000 -0.0000 38.0996 -66.6689 -21.1563
8.8454 18.2579 21.9904 1.0647 2.6087 6.4517 0.0000 0.0000 0.0000 -21.2960 -2.6711 -2.1951 0.1193 2.2267 6.1326 0.0000 0.0000 0.0000 0.0000 0.0000 0.0000 0.0000 0.0000 0.0000 21.2785 6.4028 3.0066 -0.0134 -0.7478 2.0552 -0.7797 -10.6266 -23.7115 -0.3934 -4.0275 11.1541 -0.6688 0.7800 -10.1891 -1.8132 1.1448 -4.0228 -1.3692 0.5666 1.5545 -1.0158 -2.8545 2.0470 2.6245 -3.8977 3.9274 0.9637 -1.9400 0.9410 -0.0000 -0.0000 0.0000 -82.4847 2.9703 45.9016 10.2811 -17.1781 -1.5569 -0.0000 0.0000 -12.4361 9.0491 -8.9094 -1.4129 -7.1250 0.0000 -0.0000 -12.8020 21.0481 7.5369 -0.0000 -0.0000 0.0000 88.8753 -13.2107 25.0658 -13.6579 22.2436 -2.6973 0.0000 0.0000 6.3573 -6.7867 -39.9173 4.3669 7.1250 -0.0000 -0.0000 38.1816 -66.2660 -20.8647
8.8465 18.2569 21.9943 1.1133 2.5551 6.4712 0.0000 0.0000 0.0000 -21.2909 -2.0284 -1.8258 0.0820 1.8470 5.0831 0.0000 0.0000 0.0000 0.0000 0.0000 0.0000 0.0000 0.0000 0.0000 21.2028 6.3773 2.9791 -0.0136 -0.7527 2.0685 -0.7976 -10.5134 -23.7613 -0.3645 -3.8782 10.7342 -0.7013 0.7987 -10.2847 -1.8337 1.1760 -3.9634 -1.3669 0.5822 1.6688 -0.9779 -2.8415 2.1178 2.6361 -3.8757 3.7164 0.9632 -1.9302 0.8626 -0.0000 0.0000 0.0000 -82.5220 2.7406 45.8717 10.2523 -17.1333 -1.5485 -0.0000 0.0000 -12.4144 8.9522 -8.9046 -1.3968 -7.1250 0.0000 -0.0000 -12.8710 21.0560 7.5773 -0.0000 0.0000 0.0000 88.8189 -12.9894 25.2730 -13.7328 22.3515 -2.7257 0.0000 0.0000 6.2285 -6.6907 -40.0274 4.3146 7.1250 -0.0000 -0.0000 38.4462 -66.3215 -21.0755
8.8541 18.2599 21.9962 1.1756 2.6482 6.4725 0.0000 0.0000 0.0000 -21.4336 -1.9027 -1.8419 0.0813 1.8388 5.0604 0.0000 0.0000 0.0000 0.0000 0.0000 0.0000 0.0000 0.0000 0.0000 21.0403 5.9470 2.8327 -0.0138 -0.7598 2.0881 -0.7900 -10.2967 -23.5004 -0.3416 -3.7556 10.3902 -0.6667 0.7869 -10.2601 -1.8785 1.1578 -3.9630 -1.4351 0.5728 1.6570 -0.9257 -2.8281 2.1998 2.6650 -3.8548 3.5740 0.9655 -1.9204 0.8040 0.0000 -0.0000 0.0000 -82.4625 2.7096 46.2420 10.3187 -17.2366 -1.5681 -0.0000 0.0000 -12.7423 8.9391 -8.8977 -1.3937 -7.1250 0.0000 -0.0000 -12.8808 21.0633 7.5812 0.0000 -0.0000 0.0000 88.7589 -12.8444 25.4942 -13.8090 22.4610 -2.7547 0.0000 0.0000 5.9823 -6.7716 -40.4650 4.4065 7.1250 -0.0000 -0.0000 39.0428 -66.6762 -21.7530
